<svg version="1.0" xmlns="http://www.w3.org/2000/svg"
 width="163.000000pt" height="170.000000pt">
<path d="M0 850 l0 -850 815 0 815 0 0 850 0 850 -815 0 -815 0 0 -850z m1408
353 l-3 -358 -34 -65 c-64 -123 -231 -266 -444 -380 l-98 -52 -76 37 c-214
106 -403 267 -470 401 l-38 78 -3 334 c-2 184 -1 341 2 348 4 12 101 14 586
14 l581 0 -3 -357z m-987 -680 c29 -17 59 -67 59 -98 0 -31 -30 -81 -59 -98
-60 -35 -137 -12 -167 51 -48 102 69 203 167 145z m957 -17 c23 -22 27 -35 27
-82 0 -50 -3 -58 -33 -85 -26 -23 -42 -29 -78 -29 -39 0 -51 5 -80 34 -29 29
-34 41 -34 81 0 40 5 52 35 82 33 33 39 35 86 31 38 -4 58 -12 77 -32z m-688
-205 c36 -26 51 -61 46 -104 -11 -98 -126 -135 -197 -65 -28 29 -34 48 -30 98
7 83 110 124 181 71z m381 -7 c74 -71 28 -194 -73 -194 -75 0 -123 46 -121
114 3 102 120 151 194 80z"/>
<path d="M564 1203 c40 -98 113 -275 161 -393 49 -118 91 -218 95 -222 4 -6
273 616 337 780 4 10 -9 12 -58 10 l-63 -3 -56 -135 c-31 -74 -78 -189 -105
-255 l-49 -119 -17 39 c-9 22 -56 138 -104 258 l-87 217 -64 0 -63 0 73 -177z"/>
<path d="M325 489 c4 -11 -3 -39 -16 -66 l-22 -46 22 -19 c13 -10 36 -18 51
-18 15 0 38 8 51 18 l22 19 -22 46 c-13 26 -20 55 -16 66 5 16 0 19 -35 19
-36 1 -40 -1 -35 -19z m67 -56 c10 -9 18 -29 18 -45 0 -27 -2 -28 -50 -28 -48
0 -50 1 -50 27 0 30 25 63 48 63 9 0 24 -7 34 -17z"/>
<path d="M370 421 c0 -7 -6 -11 -14 -8 -10 4 -12 0 -9 -14 3 -10 9 -19 13 -19
11 0 24 40 16 47 -3 4 -6 1 -6 -6z"/>
<path d="M1238 456 c-10 -7 -18 -26 -18 -42 l0 -29 75 0 c71 -1 75 0 75 21 0
18 -5 21 -22 18 -22 -4 -22 -4 1 6 23 10 24 11 5 25 -24 18 -93 19 -116 1z
m97 -6 c4 -6 -13 -10 -45 -10 -32 0 -49 4 -45 10 3 6 24 10 45 10 21 0 42 -4
45 -10z"/>
<path d="M554 249 c-13 -14 -13 -18 1 -29 8 -7 15 -18 15 -25 0 -16 33 -45 52
-45 28 0 82 78 68 100 -12 20 -118 19 -136 -1z m54 -3 c15 2 37 6 48 9 14 3
24 -1 28 -11 5 -13 3 -14 -6 -6 -10 8 -13 4 -13 -19 0 -16 -4 -29 -8 -29 -4 1
-15 -6 -24 -15 -14 -15 -17 -14 -34 1 -10 9 -16 21 -13 25 3 5 1 9 -4 9 -13 0
-24 29 -15 43 5 8 8 8 10 0 2 -6 16 -10 31 -7z"/>
<path d="M590 228 c0 -4 5 -10 10 -13 6 -3 10 -1 10 5 0 6 8 10 18 8 9 -2 17
-8 17 -15 0 -6 3 -14 7 -18 9 -9 5 16 -5 32 -8 13 -57 14 -57 1z"/>
<path d="M600 185 c7 -9 15 -13 17 -11 7 7 -7 26 -19 26 -6 0 -6 -6 2 -15z"/>
<path d="M959 273 c-1 -4 -1 -11 0 -15 0 -5 -5 -7 -11 -5 -9 1 -13 -14 -13
-53 l0 -55 47 -3 c72 -5 112 26 74 58 -8 6 -16 26 -18 43 -3 29 -6 32 -40 35
-21 2 -39 0 -39 -5z m69 -35 c-3 -32 -5 -33 -40 -30 -23 2 -38 -1 -38 -7 0 -6
12 -12 28 -12 l27 -2 -30 -5 -30 -5 30 -7 30 -8 -32 -1 c-32 -1 -33 0 -33 39
0 29 4 40 15 40 8 0 15 7 15 15 0 10 10 15 31 15 28 0 30 -2 27 -32z m28 -49
c3 -6 1 -16 -5 -22 -9 -9 -11 -8 -5 6 5 13 2 16 -10 11 -9 -3 -13 -11 -9 -18
4 -8 2 -8 -7 1 -7 6 -9 16 -6 22 9 14 33 14 42 0z"/>
<path d="M988 253 c6 -2 18 -2 25 0 6 3 1 5 -13 5 -14 0 -19 -2 -12 -5z"/>
<path d="M965 230 c-16 -7 -12 -9 18 -9 23 -1 36 3 32 9 -7 12 -23 12 -50 0z"/>
</svg>
